<svg width="32" height="32" viewBox="0 0 32 32" fill="none" xmlns="http://www.w3.org/2000/svg">
  <rect width="32" height="32" rx="6" fill="url(#gradient)"/>
  <defs>
    <linearGradient id="gradient" x1="0%" y1="0%" x2="100%" y2="100%">
      <stop offset="0%" style="stop-color:#ec4899"/>
      <stop offset="100%" style="stop-color:#a855f7"/>
    </linearGradient>
  </defs>
  <!-- Heart icon -->
  <path d="M16 25c-0.8 0-1.4-0.3-1.9-0.9C11.7 21.3 5.3 14.7 5.3 10.7c0-3 2.3-5.3 5.3-5.3 1.7 0 3.2 0.8 4.2 2.2 1-1.4 2.5-2.2 4.2-2.2 3 0 5.3 2.3 5.3 5.3 0 4-6.4 10.6-8.8 13.4-0.5 0.6-1.1 0.9-1.9 0.9z" fill="white"/>
  <!-- Dumbbell -->
  <rect x="10" y="14" width="12" height="1.3" rx="0.7" fill="white"/>
  <rect x="9.2" y="13.3" width="1.6" height="2.7" rx="0.8" fill="white"/>
  <rect x="21.2" y="13.3" width="1.6" height="2.7" rx="0.8" fill="white"/>
</svg>